HIERARCHY
ROOT joint_Root
{
	OFFSET 0.0 0.0 0.0
	CHANNELS 6 Xposition Yposition Zposition Zrotation Xrotation Yrotation 
	JOINT Hips
	{
		OFFSET -0.726466 93.3139 -2.00062
		CHANNELS 6 Xposition Yposition Zposition Zrotation Xrotation Yrotation 
		JOINT Spine
		{
			OFFSET 15.7357 0.0 0.0
			CHANNELS 6 Xposition Yposition Zposition Zrotation Xrotation Yrotation 
			JOINT Chest
			{
				OFFSET 8.98455 -0.406207 0.0
				CHANNELS 6 Xposition Yposition Zposition Zrotation Xrotation Yrotation 
				JOINT Neck
				{
					OFFSET 16.3773 0.0 0.0
					CHANNELS 6 Xposition Yposition Zposition Zrotation Xrotation Yrotation 
					JOINT Head
					{
						OFFSET 6.45672 0.0 0.0
						CHANNELS 6 Xposition Yposition Zposition Zrotation Xrotation Yrotation 
						End Site
						{
							OFFSET 0.0 0.0 0.0
						}
					}
				}
				JOINT Shoulder_L
				{
					OFFSET 12.9942 -0.242716 4.98039
					CHANNELS 6 Xposition Yposition Zposition Zrotation Xrotation Yrotation 
					JOINT UpperArm_L
					{
						OFFSET 5.34809 0.0 0.0
						CHANNELS 6 Xposition Yposition Zposition Zrotation Xrotation Yrotation 
						JOINT LowerArm_L
						{
							OFFSET 24.3286 1.87007e-05 0.0
							CHANNELS 6 Xposition Yposition Zposition Zrotation Xrotation Yrotation 
							JOINT Hand_L
							{
								OFFSET 22.2916 0.0 0.0
								CHANNELS 6 Xposition Yposition Zposition Zrotation Xrotation Yrotation 
								End Site
								{
									OFFSET 0.0 0.0 0.0
								}
							}
						}
					}
				}
				JOINT Shoulder_R
				{
					OFFSET 12.9945 -0.242716 -4.98039
					CHANNELS 6 Xposition Yposition Zposition Zrotation Xrotation Yrotation 
					JOINT UpperArm_R
					{
						OFFSET -5.34813 0.0 0.0
						CHANNELS 6 Xposition Yposition Zposition Zrotation Xrotation Yrotation 
						JOINT LowerArm_R
						{
							OFFSET -24.3289 0.000322201 0.0
							CHANNELS 6 Xposition Yposition Zposition Zrotation Xrotation Yrotation 
							JOINT Hand_R
							{
								OFFSET -22.2915 -0.000108084 0.0
								CHANNELS 6 Xposition Yposition Zposition Zrotation Xrotation Yrotation 
								End Site
								{
									OFFSET 0.0 0.0 0.0
								}
							}
						}
					}
				}
			}
		}
		JOINT UpperLeg_L
		{
			OFFSET -2.19248 -6.46944 0.0
			CHANNELS 6 Xposition Yposition Zposition Zrotation Xrotation Yrotation 
			JOINT LowerLeg_L
			{
				OFFSET 39.0811 0.0 -1.23785e-05
				CHANNELS 6 Xposition Yposition Zposition Zrotation Xrotation Yrotation 
				JOINT Foot_L
				{
					OFFSET 40.9854 0.0 -1.26872e-05
					CHANNELS 6 Xposition Yposition Zposition Zrotation Xrotation Yrotation 
					JOINT Toes_L
					{
						OFFSET 11.7543 0.0 0.0
						CHANNELS 6 Xposition Yposition Zposition Zrotation Xrotation Yrotation 
						End Site
						{
							OFFSET 0.0 0.0 0.0
						}
					}
				}
			}
		}
		JOINT UpperLeg_R
		{
			OFFSET -2.19251 6.46944 0.0
			CHANNELS 6 Xposition Yposition Zposition Zrotation Xrotation Yrotation 
			JOINT LowerLeg_R
			{
				OFFSET -39.0811 -0.00228153 -0.0401928
				CHANNELS 6 Xposition Yposition Zposition Zrotation Xrotation Yrotation 
				JOINT Foot_R
				{
					OFFSET -40.9854 0.0 0.0
					CHANNELS 6 Xposition Yposition Zposition Zrotation Xrotation Yrotation 
					JOINT Toes_R
					{
						OFFSET -11.7543 0.0 0.0
						CHANNELS 6 Xposition Yposition Zposition Zrotation Xrotation Yrotation 
						End Site
						{
							OFFSET 0.0 0.0 0.0
						}
					}
				}
			}
		}
	}
}
MOTION
Frames:	5
Frame Time:	0.0333333
0.000000 0.000000 0.000000 0.000000 0.000000 -0.000000 -0.748496 92.786500 0.966152 88.869800 -4.115910 1.205880 15.735700 0.000005 -0.000001 96.972000 86.454300 -96.822800 8.984550 -0.406207 -0.000000 -0.728114 0.849557 0.303644 16.377300 -0.000001 -0.000001 2.877200 -1.566390 3.603960 6.456720 -0.000001 -0.000000 5.868070 0.017172 -4.000030 12.994200 -0.242716 4.980390 -90.567300 1.726770 -71.810100 5.348090 -0.000007 -0.000001 -68.288700 40.001900 -10.940500 24.328600 0.000019 0.000005 3.180770 7.878010 -22.069500 22.291600 -0.000001 0.000005 3.763270 5.491130 -6.180220 12.994500 -0.242716 -4.980390 87.500800 8.459290 -73.474400 -5.348130 -0.000001 -0.000004 -64.927000 36.950300 -12.796700 -24.328900 0.000322 -0.000009 4.783300 13.428500 -19.819300 -22.291500 -0.000108 -0.000004 6.134110 5.328500 -0.741975 -2.192480 -6.469440 -0.000000 -176.135000 -8.203680 -1.216310 39.081100 -0.000007 -0.000012 -0.078265 0.258383 16.851600 40.985400 -0.000006 -0.000013 -1.274290 1.607200 -64.404100 11.754300 -0.000000 0.000003 -0.000001 -0.000016 -16.578100 -2.192510 6.469440 -0.000001 179.087000 9.475140 -178.678000 -39.081100 -0.002282 -0.040193 -0.027828 0.128990 13.581000 -40.985400 0.000008 0.000006 2.441810 7.304370 -64.175500 -11.754300 -0.000006 -0.000006 -0.002925 -0.039753 -18.189700
0.000000 0.000000 0.000000 0.000000 0.000000 -0.000000 -0.741722 92.796500 0.930536 88.845700 -4.191030 1.138930 15.735700 0.000005 -0.000001 97.010400 86.485000 -96.885300 8.984550 -0.406207 -0.000000 -0.789397 0.848501 0.255847 16.377300 -0.000001 -0.000001 2.893710 -1.528820 3.558200 6.456720 -0.000001 -0.000000 5.866110 0.027207 -3.986870 12.994200 -0.242716 4.980390 -90.573200 1.738210 -71.746700 5.348090 -0.000007 -0.000001 -68.314300 39.890100 -10.942800 24.328600 0.000019 0.000005 3.233040 7.955460 -22.201800 22.291600 -0.000001 0.000005 3.705060 5.491310 -6.187100 12.994500 -0.242716 -4.980390 87.481700 8.453110 -73.343400 -5.348130 -0.000001 -0.000004 -64.677200 35.717000 -12.849400 -24.328900 0.000322 -0.000009 5.506170 14.120900 -21.563700 -22.291500 -0.000108 -0.000004 5.142410 5.327490 -0.712167 -2.192480 -6.469440 -0.000000 -176.136000 -8.220820 -1.287350 39.081100 -0.000007 -0.000012 -0.078254 0.258873 16.819300 40.985400 -0.000006 -0.000013 -1.276850 1.532780 -64.365300 11.754300 -0.000000 0.000003 -0.000001 -0.000018 -16.578200 -2.192510 6.469440 -0.000001 179.114000 9.552770 -178.737000 -39.081100 -0.002282 -0.040193 -0.025485 0.120003 13.503600 -40.985400 0.000008 0.000006 2.477590 7.449460 -64.113200 -11.754300 -0.000006 -0.000006 -0.002915 -0.039637 -18.185000
0.000000 0.000000 0.000000 0.000000 0.000000 -0.000000 -0.721509 92.804300 0.909412 88.803600 -4.445140 1.152210 15.735700 0.000005 -0.000001 97.190100 86.483000 -97.097400 8.984550 -0.406207 -0.000000 -0.787973 0.873296 0.191357 16.377300 -0.000001 -0.000001 2.827690 -1.441010 3.537010 6.456720 -0.000001 -0.000000 5.886190 0.137831 -4.073300 12.994200 -0.242716 4.980390 -90.582900 1.752800 -71.602800 5.348090 -0.000007 -0.000001 -68.316000 39.749300 -10.942200 24.328600 0.000019 0.000005 3.202880 7.823940 -22.346000 22.291600 -0.000001 0.000005 3.722070 5.491010 -6.175350 12.994500 -0.242716 -4.980390 87.423500 8.538920 -73.140100 -5.348130 -0.000001 -0.000004 -64.200500 33.239500 -12.889600 -24.328900 0.000322 -0.000009 6.344070 13.544800 -25.398200 -22.291500 -0.000108 -0.000004 4.418880 5.305890 -0.093142 -2.192480 -6.469440 -0.000000 -176.105000 -8.428890 -1.228010 39.081100 -0.000007 -0.000012 -0.077460 0.256831 16.783200 40.985400 -0.000006 -0.000013 -1.270150 1.483190 -64.358500 11.754300 -0.000000 0.000003 -0.000001 -0.000014 -16.578000 -2.192510 6.469440 -0.000001 179.139000 9.460720 -178.741000 -39.081100 -0.002282 -0.040193 -0.024068 0.114397 13.469900 -40.985400 0.000008 0.000006 2.614750 7.607180 -64.085400 -11.754300 -0.000006 -0.000006 -0.002752 -0.037766 -18.108900
0.000000 0.000000 0.000000 0.000000 0.000000 -0.000000 -0.683260 92.819500 0.852446 88.763300 -4.815840 1.130420 15.735700 0.000005 -0.000001 97.212600 86.500800 -97.167600 8.984550 -0.406207 -0.000000 -0.823374 0.875094 0.096326 16.377300 -0.000001 -0.000001 2.867830 -1.318590 3.493660 6.456720 -0.000001 -0.000000 5.823630 0.312638 -4.172510 12.994200 -0.242716 4.980390 -90.567100 1.696720 -71.517200 5.348090 -0.000007 -0.000001 -68.433600 39.556100 -10.820000 24.328600 0.000019 0.000005 3.207550 7.804830 -22.424400 22.291600 -0.000001 0.000005 3.779790 5.491200 -6.182920 12.994500 -0.242716 -4.980390 87.327800 8.704370 -72.860200 -5.348130 -0.000001 -0.000004 -63.294800 30.300100 -13.270600 -24.328900 0.000322 -0.000009 6.952650 11.654700 -31.121900 -22.291500 -0.000108 -0.000004 5.509560 5.312060 -0.268251 -2.192480 -6.469440 -0.000000 -176.085000 -8.715860 -1.195220 39.081100 -0.000007 -0.000012 -0.078485 0.261567 16.702300 40.985400 -0.000006 -0.000013 -1.264430 1.399360 -64.310000 11.754300 -0.000000 0.000003 -0.000001 -0.000015 -16.578100 -2.192510 6.469440 -0.000001 179.154000 9.388020 -178.795000 -39.081100 -0.002282 -0.040193 -0.022346 0.107825 13.395700 -40.985400 0.000008 0.000006 2.689620 7.873870 -63.994600 -11.754300 -0.000006 -0.000006 -0.002836 -0.038738 -18.148500
0.000000 0.000000 0.000000 0.000000 0.000000 -0.000000 -0.631003 92.819200 0.798780 88.666600 -5.355800 1.175720 15.735700 0.000005 -0.000001 96.963400 86.510600 -96.925300 8.984550 -0.406207 -0.000000 -0.838937 0.843050 0.082400 16.377300 -0.000001 -0.000001 2.942150 -1.170940 3.414310 6.456720 -0.000001 -0.000000 5.863010 0.514255 -4.454350 12.994200 -0.242716 4.980390 -90.577700 1.716460 -71.394500 5.348090 -0.000007 -0.000001 -68.518100 39.450900 -10.657700 24.328600 0.000019 0.000005 3.237340 7.876060 -22.429200 22.291600 -0.000001 0.000005 3.652450 5.489230 -6.105560 12.994500 -0.242716 -4.980390 87.301700 8.622570 -72.549700 -5.348130 -0.000001 -0.000004 -61.969200 27.514600 -14.486700 -24.328900 0.000322 -0.000009 8.375490 10.635300 -38.583900 -22.291500 -0.000108 -0.000004 7.646210 5.327650 -0.716313 -2.192480 -6.469440 -0.000000 -176.038000 -8.964390 -1.167920 39.081100 -0.000007 -0.000012 -0.077208 0.255389 16.820800 40.985400 -0.000006 -0.000013 -1.271560 1.101660 -64.381600 11.754300 -0.000000 0.000003 -0.000002 -0.000024 -16.578400 -2.192510 6.469440 -0.000001 179.183000 9.219410 -178.858000 -39.081100 -0.002282 -0.040193 -0.022209 0.106775 13.453000 -40.985400 0.000008 0.000006 2.768860 8.252670 -63.958500 -11.754300 -0.000006 -0.000006 -0.002894 -0.039398 -18.175300
